<?xml version="1.0" encoding="UTF-8"?>
<svg id="Full_Logo" xmlns="http://www.w3.org/2000/svg" viewBox="48 60 242.38 223.99">
  <defs>
    <style>
      .cls-1 {
        fill: #4388c8;
      }

      .cls-2 {
        fill: #fff;
      }

      .cls-3 {
        fill: #1e3b70;
      }
    </style>
  </defs>
  <path class="cls-2" d="M286.87,211.15c-.15,0-.32,0-.51.02-1.21.09-2.45.3-3.75.3-2.84,0-5.98-1.01-9.75-6.53-5.5-8.05-10.67-7.35-11.51-7.91-.85-.57,3.67-2.19,4.45-8.13.78-5.94,11.44-11.24,11.23-12.51-.09-.55-2.95-1.52-7.17-1.52-5.5,0-13.31,1.63-20.38,7.95-8.16,7.29-9.82,12.87-14.27,17.61l-.1.1c-.16.17-.33.34-.52.52-.06.06-.12.12-.19.18-.16.16-.33.31-.49.47l-.24.22c-.18.16-.35.31-.53.46-.08.06-.16.13-.24.2-.2.16-.4.32-.61.47-.07.05-.14.11-.2.16-.24.17-.48.35-.73.52-.04.03-.08.05-.12.08-.47.32-.98.64-1.51.96.02-.16.04-.3.04-.41,0-1.7,2.54-10.47,2.82-15.27.28-4.81,4.95-15.69,4.81-18.8-.14-3.11-3.54-6.37-3.54-6.37,0,0-.71-2.26-1.41-3.67-.71-1.41-3.39-4.1-3.39-4.1,0,0,.56-4.52-.99-9.33-1.55-4.81-7.76-8.62-7.76-8.62,0,0,1.97-2.98-3.26-10.61-4.02-5.87-9.05-6.89-13.61-6.2-.44-.45-3.02-2.97-6.39-4.51-2.62-1.21-5.02-2.3-6.05-2.77-.11-.61-.3-1.57-.5-2.48l-.37-.78c1.17,1.2,1.92,2.08,2.03,2.2-.07-.18-.69-1.73-2.41-3.74-.34-.75-.72-1.41-.92-1.75-.04-.54-.13-1.78-.28-3.41l-.03-.32c3.85,2.02,6.78,4.38,6.78,4.38,0,0-1.85-3.07-6.9-5.52-.09-.76-.18-1.57-.29-2.43h-.01l-.03-.27c1.76.54,3.62,1.3,5.76,2.51-1.51-1.56-3.66-2.66-5.88-3.48-.44-3.21-1.07-6.83-1.95-10.03-.89-3.2-2.03-5.98-3.49-7.5-5.07-5.28-9.33-5.72-12.91-5.72s-7.84.44-12.92,5.72c-2.91,3.04-4.56,11.12-5.44,17.53-2.21.82-4.35,1.92-5.87,3.48,2.14-1.21,3.98-1.96,5.74-2.51-.12.96-.23,1.87-.32,2.71-5.04,2.44-6.89,5.51-6.89,5.51,0,0,2.93-2.36,6.77-4.37-.18,1.8-.27,3.15-.31,3.72-.2.34-.57,1-.91,1.76-1.73,2-2.34,3.55-2.41,3.73.13-.14.77-.9,1.79-1.96-.24,1.03-.49,2.29-.62,3.02-1.04.47-3.44,1.56-6.07,2.77-3.16,1.44-5.62,3.74-6.28,4.4-4.31-.42-8.96.82-12.72,6.31-5.22,7.63-3.24,10.61-3.24,10.61,0,0-6.22,3.81-7.78,8.62-1.55,4.81-.99,9.33-.99,9.33,0,0-2.68,2.69-3.39,4.1-.7,1.41-1.41,3.67-1.41,3.67,0,0-3.39,3.26-3.53,6.37s4.52,13.99,4.8,18.8c.29,4.8,2.83,13.57,2.83,15.27s2.4,9.04,4.24,9.19c1.84.14,6.92.42,12.28-.71,1.4-.29,3.97,0,4.25-4.1.07-1,3.11-1.98,2.96-4.66-.03-.66-2.49-3.49-2.11-4.95.3-1.17-1.41-4.66-3.67-4.81-2.27-.15-6.46-1.04-6.79-5.51-.28-3.82,2.12-6.5,4.66-9.9,2.55-3.39.7-11.59.7-11.59,0,0,1.85.42,4.81-3.26,2.97-3.67,4.38-4.8,4.38-4.8,0,0,5.19,6.55,8.48,10.18,3.35,3.71,4.1,15.55,4.1,15.55.56,3.89,2.65,14.56,8.33,24.53,5.7,9.96,14.98,19.22,29.92,20.28,3.32.23,6.32.34,9.05.34,21.83,0,26.11-7.06,34.46-13.53,5.75-4.45,9.35-6.97,14-6.97,2.97,0,6.37,1.02,11.01,3.22,7.75,3.68,14.4,5.59,19.38,5.59,2.7,0,4.9-.56,6.54-1.7,4.43-3.09,8.35-5.6,5.46-5.6ZM218.6,188.81c-.33,4.47-4.52,5.36-6.77,5.51-2.26.15-3.97,3.64-3.67,4.81.37,1.46-2.09,4.29-2.12,4.95-.14,2.68,2.89,3.66,2.96,4.66.04.53.11.97.22,1.36-.74-.05-1.46-.13-2.18-.25h-.01c-.32-.06-.64-.12-.96-.19-.02,0-.05-.01-.08-.01-.29-.07-.58-.14-.87-.21-.04-.01-.09-.02-.13-.03-.27-.08-.54-.16-.82-.24-.05-.02-.1-.03-.16-.05-.25-.09-.5-.18-.75-.27-.06-.02-.12-.05-.19-.07-.23-.09-.47-.19-.71-.29-.06-.03-.13-.05-.19-.08-.23-.1-.46-.21-.68-.32-.07-.03-.14-.07-.21-.1-.21-.11-.42-.23-.64-.35-.07-.04-.14-.08-.21-.12-.2-.12-.41-.25-.61-.38-.07-.04-.14-.09-.21-.13-.2-.14-.4-.28-.59-.42-.07-.05-.13-.09-.2-.14-.2-.15-.39-.31-.59-.47-.05-.05-.11-.09-.17-.14-.21-.18-.42-.37-.62-.57-.04-.03-.07-.05-.1-.09-.24-.23-.47-.46-.7-.71,0-.01-.02-.02-.03-.04-.21-.23-.41-.46-.61-.71-.09-.1-.17-.21-.25-.32-.12-.15-.24-.31-.36-.48-.1-.13-.19-.27-.28-.4-.1-.15-.2-.3-.3-.45-.09-.15-.18-.31-.27-.47-.09-.15-.18-.29-.26-.44-.09-.17-.18-.34-.27-.51-.07-.15-.15-.3-.22-.45-.09-.18-.17-.37-.26-.55-.06-.15-.13-.3-.2-.46-.08-.19-.15-.39-.23-.59-.06-.16-.12-.31-.17-.47-.08-.21-.15-.43-.22-.64-.05-.16-.1-.32-.15-.47-.06-.23-.13-.46-.19-.69-.04-.16-.08-.32-.12-.48-.06-.25-.12-.49-.17-.74-.04-.16-.07-.32-.1-.48-.05-.28-.1-.54-.15-.81-.02-.16-.05-.32-.07-.48-.04-.28-.08-.56-.12-.85-.02-.15-.03-.31-.05-.46-.03-.31-.06-.62-.09-.94-.01-.13-.02-.27-.03-.41-.02-.34-.04-.69-.06-1.04v-.31c-.02-.4-.03-.8-.03-1.21h0c0-1.01.04-2.05.11-3.13v-.14c.03-.51.05-.99.04-1.46.02-.55.06-1.2.12-1.93.01-.12.01-.23.02-.35.01-.1.02-.2.03-.31.03-.28.05-.56.09-.86v-.08c.25-2.28.69-4.91,1.48-7.01h.01c.11-.3.23-.6.36-.88.12-.27.25-.52.39-.75.01-.03.03-.06.05-.09.13-.23.27-.44.42-.63,0-.01,0-.02.01-.02.15-.2.3-.37.46-.53.03-.03.07-.06.1-.1.16-.15.33-.29.51-.41.69-.46,1.4-1.06,2.08-1.73,3.37-3.29,6.39-8.45,6.39-8.45,0,0,.02.02.07.06h.01c.34.29,1.74,1.57,4.31,4.74,2.96,3.68,4.8,3.26,4.8,3.26,0,0-1.84,8.2.7,11.59,2.54,3.4,4.94,6.08,4.66,9.9Z"/>
  <path class="cls-2" d="M286.87,211.15c-.15,0-.32,0-.51.02-1.21.09-2.45.3-3.75.3-2.84,0-5.98-1.01-9.75-6.53-5.5-8.05-10.67-7.35-11.51-7.91-.85-.57,3.67-2.19,4.45-8.13.78-5.94,11.44-11.24,11.23-12.51-.09-.55-2.95-1.52-7.17-1.52-5.5,0-13.31,1.63-20.38,7.95-8.16,7.29-9.82,12.87-14.27,17.61l-.1.1c-.16.17-.33.34-.52.52-.06.06-.12.12-.19.18-.16.16-.33.31-.49.47l-.24.22c-.18.16-.35.31-.53.46-.08.06-.16.13-.24.2-.2.16-.4.32-.61.47-.07.05-.14.11-.2.16-.24.17-.48.35-.73.52-.04.03-.08.05-.12.08-.47.32-.98.64-1.51.96.02-.16.04-.3.04-.41,0-1.7,2.54-10.47,2.82-15.27.28-4.81,4.95-15.69,4.81-18.8-.14-3.11-3.54-6.37-3.54-6.37,0,0-.71-2.26-1.41-3.67-.71-1.41-3.39-4.1-3.39-4.1,0,0,.56-4.52-.99-9.33-1.55-4.81-7.76-8.62-7.76-8.62,0,0,1.97-2.98-3.26-10.61-4.02-5.87-9.05-6.89-13.61-6.2-.44-.45-3.02-2.97-6.39-4.51-2.62-1.21-5.02-2.3-6.05-2.77-.11-.61-.3-1.57-.5-2.48l-.37-.78c1.17,1.2,1.92,2.08,2.03,2.2-.07-.18-.69-1.73-2.41-3.74-.34-.75-.72-1.41-.92-1.75-.04-.54-.13-1.78-.28-3.41l-.03-.32c3.85,2.02,6.78,4.38,6.78,4.38,0,0-1.85-3.07-6.9-5.52-.09-.76-.18-1.57-.29-2.43h-.01l-.03-.27c1.76.54,3.62,1.3,5.76,2.51-1.51-1.56-3.66-2.66-5.88-3.48-.44-3.21-1.07-6.83-1.95-10.03-.89-3.2-2.03-5.98-3.49-7.5-5.07-5.28-9.33-5.72-12.91-5.72s-7.84.44-12.92,5.72c-2.91,3.04-4.56,11.12-5.44,17.53-2.21.82-4.35,1.92-5.87,3.48,2.14-1.21,3.98-1.96,5.74-2.51-.12.96-.23,1.87-.32,2.71-5.04,2.44-6.89,5.51-6.89,5.51,0,0,2.93-2.36,6.77-4.37-.18,1.8-.27,3.15-.31,3.72-.2.34-.57,1-.91,1.76-1.73,2-2.34,3.55-2.41,3.73.13-.14.77-.9,1.79-1.96-.24,1.03-.49,2.29-.62,3.02-1.04.47-3.44,1.56-6.07,2.77-3.16,1.44-5.62,3.74-6.28,4.4-4.31-.42-8.96.82-12.72,6.31-5.22,7.63-3.24,10.61-3.24,10.61,0,0-6.22,3.81-7.78,8.62-1.55,4.81-.99,9.33-.99,9.33,0,0-2.68,2.69-3.39,4.1-.7,1.41-1.41,3.67-1.41,3.67,0,0-3.39,3.26-3.53,6.37s4.52,13.99,4.8,18.8c.29,4.8,2.83,13.57,2.83,15.27s2.4,9.04,4.24,9.19c1.84.14,6.92.42,12.28-.71,1.4-.29,3.97,0,4.25-4.1.07-1,3.11-1.98,2.96-4.66-.03-.66-2.49-3.49-2.11-4.95.3-1.17-1.41-4.66-3.67-4.81-2.27-.15-6.46-1.04-6.79-5.51-.28-3.82,2.12-6.5,4.66-9.9,2.55-3.39.7-11.59.7-11.59,0,0,1.85.42,4.81-3.26,2.97-3.67,4.38-4.8,4.38-4.8,0,0,5.19,6.55,8.48,10.18,3.35,3.71,4.1,15.55,4.1,15.55.56,3.89,2.65,14.56,8.33,24.53,5.7,9.96,14.98,19.22,29.92,20.28,3.32.23,6.32.34,9.05.34,21.83,0,26.11-7.06,34.46-13.53,5.75-4.45,9.35-6.97,14-6.97,2.97,0,6.37,1.02,11.01,3.22,7.75,3.68,14.4,5.59,19.38,5.59,2.7,0,4.9-.56,6.54-1.7,4.43-3.09,8.35-5.6,5.46-5.6ZM218.6,188.81c-.33,4.47-4.52,5.36-6.77,5.51-2.26.15-3.97,3.64-3.67,4.81.37,1.46-2.09,4.29-2.12,4.95-.14,2.68,2.89,3.66,2.96,4.66.04.53.11.97.22,1.36-.74-.05-1.46-.13-2.18-.25h-.01c-.32-.06-.64-.12-.96-.19-.02,0-.05-.01-.08-.01-.29-.07-.58-.14-.87-.21-.04-.01-.09-.02-.13-.03-.27-.08-.54-.16-.82-.24-.05-.02-.1-.03-.16-.05-.25-.09-.5-.18-.75-.27-.06-.02-.12-.05-.19-.07-.23-.09-.47-.19-.71-.29-.06-.03-.13-.05-.19-.08-.23-.1-.46-.21-.68-.32-.07-.03-.14-.07-.21-.1-.21-.11-.42-.23-.64-.35-.07-.04-.14-.08-.21-.12-.2-.12-.41-.25-.61-.38-.07-.04-.14-.09-.21-.13-.2-.14-.4-.28-.59-.42-.07-.05-.13-.09-.2-.14-.2-.15-.39-.31-.59-.47-.05-.05-.11-.09-.17-.14-.21-.18-.42-.37-.62-.57-.04-.03-.07-.05-.1-.09-.24-.23-.47-.46-.7-.71,0-.01-.02-.02-.03-.04-.21-.23-.41-.46-.61-.71-.09-.1-.17-.21-.25-.32-.12-.15-.24-.31-.36-.48-.1-.13-.19-.27-.28-.4-.1-.15-.2-.3-.3-.45-.09-.15-.18-.31-.27-.47-.09-.15-.18-.29-.26-.44-.09-.17-.18-.34-.27-.51-.07-.15-.15-.3-.22-.45-.09-.18-.17-.37-.26-.55-.06-.15-.13-.3-.2-.46-.08-.19-.15-.39-.23-.59-.06-.16-.12-.31-.17-.47-.08-.21-.15-.43-.22-.64-.05-.16-.1-.32-.15-.47-.06-.23-.13-.46-.19-.69-.04-.16-.08-.32-.12-.48-.06-.25-.12-.49-.17-.74-.04-.16-.07-.32-.1-.48-.05-.28-.1-.54-.15-.81-.02-.16-.05-.32-.07-.48-.04-.28-.08-.56-.12-.85-.02-.15-.03-.31-.05-.46-.03-.31-.06-.62-.09-.94-.01-.13-.02-.27-.03-.41-.02-.34-.04-.69-.06-1.04v-.31c-.02-.4-.03-.8-.03-1.21h0c0-1.01.04-2.05.11-3.13v-.14c.03-.51.05-.99.04-1.46.02-.55.06-1.2.12-1.93.01-.12.01-.23.02-.35.01-.1.02-.2.03-.31.03-.28.05-.56.09-.86v-.08c.25-2.28.69-4.91,1.48-7.01h.01c.11-.3.23-.6.36-.88.12-.27.25-.52.39-.75.01-.03.03-.06.05-.09.13-.23.27-.44.42-.63,0-.01,0-.02.01-.02.15-.2.3-.37.46-.53.03-.03.07-.06.1-.1.16-.15.33-.29.51-.41.69-.46,1.4-1.06,2.08-1.73,3.37-3.29,6.39-8.45,6.39-8.45,0,0,.02.02.07.06h.01c.34.29,1.74,1.57,4.31,4.74,2.96,3.68,4.8,3.26,4.8,3.26,0,0-1.84,8.2.7,11.59,2.54,3.4,4.94,6.08,4.66,9.9Z"/>
  <g>
    <path class="cls-3" d="M163.28,101.62c-.13,0-.25.05-.33.14,0,0-1.96,1.62-3,2.57-4.12,3.79-4.93,7.26-4.93,7.26,0,0,3.74-5.73,8.5-9.09.03-.02.05-.04.08-.06h0c.1-.09.17-.21.17-.36,0-.26-.21-.47-.47-.47Z"/>
    <path class="cls-3" d="M286.87,211.15c-.15,0-.32,0-.51.02-1.21.09-2.45.3-3.75.3-2.83,0-5.98-1.01-9.75-6.52-5.5-8.06-10.67-7.35-11.51-7.92-.85-.57,3.68-2.19,4.45-8.13.78-5.93,11.44-11.23,11.23-12.5-.09-.55-2.95-1.53-7.17-1.53-5.49,0-13.31,1.64-20.37,7.96-8.17,7.29-9.83,12.86-14.28,17.61l-.1.1c-.16.17-.33.34-.51.52-.06.06-.12.12-.19.18-.16.16-.33.31-.49.47l-.24.21c-.18.16-.35.31-.53.46-.08.06-.16.13-.24.2-.2.16-.4.32-.62.47-.07.05-.14.11-.2.16-.24.17-.48.35-.73.52-.04.03-.08.05-.12.08-.47.32-.98.64-1.51.97.02-.17.04-.31.04-.42,0-1.4,1.73-7.62,2.5-12.45l4.31,1.47c1.76-3.02,3.3-6.13,4.66-9.41,1.36-3.27,2.5-6.64,3.39-10.02l-7.23-3.55v-.1c-.14-3.12-3.53-6.37-3.53-6.37,0,0-.71-2.26-1.41-3.68-.27-.53-.83-1.25-1.41-1.93.31-5.42-.08-10.93-1.27-16.4l14.85-7.29c-.89-3.38-2-6.68-3.36-9.95-1.36-3.28-2.93-6.46-4.69-9.49l-15.85,5.42c-4.67-6.97-10.64-12.75-17.44-17.16l5.49-16.05c-3.03-1.77-6.14-3.31-9.41-4.67-3.28-1.36-6.65-2.5-10.03-3.39l-3.87,7.89c-.8-2.44-1.77-4.5-2.96-5.73-5.07-5.28-9.32-5.72-12.91-5.72s-7.84.44-12.91,5.72c-1.15,1.19-2.1,3.19-2.89,5.54l-3.78-7.7c-3.38.89-6.75,2.03-10.02,3.39-3.28,1.36-6.39,2.9-9.41,4.67l5.56,16.29c-6.93,4.56-12.71,10.38-17.16,17.04l-16.2-5.54c-1.77,3.03-3.34,6.21-4.7,9.49-1.36,3.27-2.46,6.57-3.35,9.95l15.23,7.48c-1.15,5.42-1.56,11.03-1.2,16.66-.43.54-.81,1.07-1.03,1.48-.7,1.42-1.41,3.68-1.41,3.68,0,0-3.15,3.03-3.5,6.04l-8.09,3.98c.89,3.38,2.03,6.75,3.38,10.02,1.36,3.28,2.9,6.39,4.67,9.41l5.1-1.74s-.01-.07-.01-.11c.73,4.88,2.55,11.39,2.55,12.83,0,1.7,2.41,9.05,4.24,9.2,1.84.14,6.92.42,12.29-.71,1.39-.29,3.96,0,4.24-4.1.07-.94,2.75-1.86,2.95-4.2.57.41,1.13.82,1.71,1.2l-5.27,15.43c3.02,1.77,6.2,3.34,9.48,4.7,3.28,1.36,6.57,2.46,9.95,3.35l7.12-14.5c1.27.27,2.55.49,3.83.68,5.77,7.48,14.09,13.55,26.01,14.4,3.31.23,6.31.34,9.04.34,21.84,0,26.11-7.06,34.46-13.54,5.75-4.44,9.35-6.97,14-6.97,2.97,0,6.37,1.02,11.01,3.23,7.76,3.67,14.4,5.58,19.38,5.58,2.7,0,4.91-.56,6.54-1.7,4.43-3.08,8.35-5.6,5.46-5.6ZM241.14,195.54c2.2-3.3,4.69-7.04,9.55-11.37,7.29-6.52,15.15-7.49,19.17-7.49,1.66,0,3.01.16,4,.34-.23.18-.46.35-.67.51-3.41,2.58-8.56,6.48-9.17,11.14-.13.98-.38,1.81-.7,2.53-.43.52-.88,1.02-1.36,1.49-2.04,2.12-4.59,4.19-7.64,4.21h-.9c-3.63.25-7.22.82-10.7,1.77-1.26.11-2.6.24-4.01.37.84-1.13,1.62-2.3,2.43-3.5ZM218.75,150.64c0-.56,1.84-9.04,1.84-9.04,0,0,3.53,1.97,4.94,7.07,1.41,5.09.56,8.05,3.39,11.86,2.82,3.83,1.13,5.52.28,8.92-.85,3.39-1.27,12.57-1.27,12.57,0,0,2.54-3.95,2.4-9.04-.14-5.09,2.27-6.93,2.27-6.93,0,0,1.83,1.84,2.12,5.94.17,2.45-3.07,10.12-5.85,20.36-1.54,5.71-3.02,14.31-3.48,17.06-.09.54-.49.97-1.02,1.1,0,0-2.76,1.43-3.31.78,1.94-.62,3.28-10.14,3.44-11.33-.23,1.13-2.12,10.24-5.04,10.48h-2.93s2.1-1.67,2.06-1.91c-.98,1.08-2.7,1.49-3.75,1.72-1.32.28-3.48,0-4.05-1.6-.56-1.6,1.32-3.76,1.32-3.76l.22.59c.16.4.58.65,1.01.56.55-.12,1.24-.44,1.4-1.25.29-1.42-.47-3.3-1.31-3.77-.85-.47-1.04-1.51-1.04-1.51,0,0-.56.75-.09,1.7.47.94.18,1.22-1.04,2.16-1.22.94-1.13,2.74-1.13,2.74,0,0-.75-.19-1.5-1.52-.76-1.31,1.6-1.41,1.6-3.48s.75-3.53.75-3.53c.85-1.56,6.22-1.84,9.04-3.25,2.83-1.42,1.56-9.33-.28-15.27-1.83-5.94.99-9.47,2.83-16.68,1.78-7.01-2.44-9.35-2.68-9.47.06.14.59,1.3.98,3.81.42,2.68-1.13,6.22-3.25,7.49-2.12,1.28-8.05-.56-12.15-6.22-4.1-5.65-1.55-14.56-1.41-15.41.14-.84,7.2,2.69,10.17,4.25,2.97,1.55,4.52,4.38,4.52,3.81ZM191.38,188.12h0c0-1.01.04-2.04.11-3.12v-.14c.03-.51.05-.99.04-1.46.02-.55.06-1.21.12-1.94,0-.12,0-.23.02-.35.01-.1.02-.2.03-.31.03-.28.05-.56.09-.86v-.08c.25-2.27.69-4.91,1.48-7.01h0c.11-.3.23-.59.36-.87.12-.27.25-.52.39-.75.01-.03.03-.06.05-.09.13-.23.27-.44.42-.63,0-.01,0-.02.01-.02.15-.2.3-.37.46-.53.03-.03.07-.06.1-.1.16-.15.33-.29.51-.41.69-.46,1.4-1.06,2.08-1.74,3.37-3.28,6.4-8.45,6.4-8.45,0,0,.02.02.07.06h.01c.33.29,1.73,1.58,4.3,4.75,2.96,3.67,4.8,3.25,4.8,3.25,0,0-1.84,8.21.7,11.6.17.22.34.44.5.66-4.86,8.58-12.1,15.62-20.84,20.22-.02-.05-.05-.09-.07-.14-.06-.15-.13-.3-.2-.46-.08-.19-.15-.39-.23-.59-.06-.16-.12-.31-.17-.47-.08-.21-.15-.43-.22-.64-.05-.17-.1-.33-.15-.48-.06-.23-.13-.46-.19-.69-.04-.16-.08-.32-.12-.48-.06-.25-.12-.49-.17-.74-.04-.16-.07-.32-.1-.48-.05-.27-.1-.53-.15-.8-.02-.16-.05-.32-.07-.48-.04-.28-.08-.56-.12-.85-.02-.15-.03-.31-.05-.46-.03-.31-.06-.62-.09-.94-.01-.13-.02-.27-.03-.41-.02-.34-.04-.7-.06-1.05v-.31c-.02-.4-.03-.8-.03-1.21ZM206.04,204.27c.01,2.54,2.89,3.5,2.96,4.48.04.52.11.96.22,1.35-.74-.05-1.46-.13-2.18-.25h-.01c-.32-.06-.64-.12-.96-.19-.02,0-.05-.01-.08-.01-.29-.07-.58-.14-.87-.21-.04,0-.09-.02-.13-.03-.09-.02-.17-.05-.26-.07l-1.15-3.36c.84-.55,1.66-1.12,2.46-1.71ZM215.78,129.44c1.7,4.38,2.69,7.49,2.27,11.59-.43,4.1-1.14,5.66-1.14,5.66,0,0-8.75-4.95-11.3-7.07-2.46-2.06-6.25-7.29-6.49-7.61.2.45,3.98,9.13-.01,13.12-4.09,4.1-11.72,9.9-19.49,6.92-7.77-2.96-9.89-4.66-8.62-16.68,1.28-12.02,20.45-8.58,20.45-8.58,0,0,7.27-2.19,12.33-3.01,5.16-.83,10.3,1.28,12,5.66ZM175.3,172.19c-2.27-.2-3.62-.38-4.25-4.15-.6-3.74-.09-5.13,4.39-3.58,1.48.52,5.63-1.73,5.46,2.54-.14,3.54-3.33,5.39-5.6,5.19ZM179.44,176.39c-1.39,7.2-7.94,6.88-8.53,3.1-.89-5.89-.17-5.45,3.87-5.18,2,.13,5.47-2.13,4.66,2.08ZM180.81,160.93c-1.56.99-3.2,2.31-5.6,1.56-2.4-.76-4.34-1.51-4.44-5.47-.09-3.97.76-4.25,2.46-3.87,1.69.38,6.59,1.23,8.42,3.02.72.7.71,3.76-.84,4.76ZM195.3,108.21h0s-.01,0-.03-.02c.02.01.03.02.03.02ZM182.2,88.3c0,2.7-2.19,4.9-4.9,4.9s-4.89-2.2-4.89-4.9,2.19-4.91,4.89-4.91,4.9,2.19,4.9,4.91ZM169.6,78.03c3.12,0,6.5.36,10.67,4.42-.89-.47-1.89-.73-2.97-.73-2.86,0-5.28,1.88-6.12,4.47h-3.17c-.82-2.59-3.25-4.47-6.11-4.47-1.07,0-2.08.26-2.97.73,4.17-4.06,7.55-4.42,10.67-4.42ZM161.9,83.39c2.7,0,4.9,2.19,4.9,4.91s-2.2,4.9-4.9,4.9-4.9-2.2-4.9-4.9,2.19-4.91,4.9-4.91ZM155.53,88.97c.41,3.15,3.11,5.59,6.37,5.59.12,0,.23-.02.34-.03-.36.54-1.06,1.55-1.47,2.03-.31.36-3.53.7-7.14,1.71.46-3.17,1.09-6.5,1.9-9.3ZM152.59,107.98c.01-.13.02-.27.03-.41,1.38-1.14,2.92-2.27,4.56-3.16,4.92-2.73,5.64-3.13,5.64-3.13.22-.11.36-.35.31-.6-.07-.3-.36-.5-.67-.44-.01,0-.02.02-.03.02,0,0-4.42,2.13-9.28,5.67-.15.11-.29.22-.44.34.09-1.04.2-2.25.35-3.56.82-.36,1.66-.69,2.51-.96,5.38-1.67,6.17-1.91,6.17-1.91.24-.07.42-.28.42-.53,0-.31-.25-.56-.56-.56h-.04s-3.73.93-8.38,2.87c.09-.74.18-1.5.29-2.27,1.37-.31,2.73-.55,4.2-.81,4.09-.76,4.23-.76,4.23-.76l.52-3.27c2.83-.22,5.15-2.28,5.74-5h2.87c.6,2.72,2.92,4.76,5.75,4.99l.52,3.28s.14,0,4.24.76c2.27.42,4.34.78,6.53,1.47l.03.25c-2.28-.73-4.41-1.09-6.76-1.52-2-.37-3.05-.56-3.61-.66l-.14.67c-.3,0-.55.25-.55.56,0,.25.18.46.42.53,0,0,.79.24,6.16,1.91,1.7.53,3.37,1.28,4.9,2.09l.03.32c-1.6-.85-3.35-1.66-5.13-2.21-5.37-1.67-6.16-1.91-6.16-1.91-.06-.02-.11-.04-.15-.07l-.21.35c-.08-.04-.13-.06-.13-.06-.01,0-.02-.01-.03-.02-.31-.06-.6.14-.66.44-.06.25.08.49.3.6,0,0,.72.4,5.65,3.13,5.3,2.92,9.85,8.32,10.13,8.65-.07-.18-.69-1.73-2.41-3.75-.34-.75-.71-1.41-.91-1.75-.02-.22-.05-.57-.08-1.02,8.12,3.25,15.23,8.5,20.69,15.16-2.01-.58-4.05-.6-6-.31-.44-.44-3.03-2.96-6.4-4.5-2.62-1.22-5.02-2.31-6.05-2.78-.11-.6-.3-1.56-.5-2.47-1.8-1.9-5.06-5.05-8.67-7.03-4.47-2.48-5.48-3.03-5.63-3.11l-.23.39c-.07-.05-.15-.08-.24-.08-.26,0-.47.21-.47.48,0,.14.07.27.17.35h0s.05.04.07.06c4.4,3.11,8.05,8.19,8.43,9,.03.07.1.48.1.48,0,0-.13-.09-.25-.22-.15-.16-3.88-5.79-8.42-9.02l-.28.48c-.37-.19-.78-.4-1.24-.63-4.49-2.23-3.64-3.5-3.64-4.67s3.11-3.17,2.41-3.68c-.71-.49-3.01-.63-3.01-.63,0,0-2.3.14-3,.63-.71.51,2.4,2.52,2.4,3.68s.84,2.44-3.64,4.67c-4.48,2.23-4.69,2.65-2.4,4.17,2.29,1.52,3.46,2.76,6.64,2.76.77,0,1.65-.15,2.02-.21.83-.14,1.41.22,1.9,1.29-.64.06-1.28.09-1.91.12-.05,0-.1,0-.14.01-.61.02-1.22.04-1.83.06-1.62-.05-3.26-.07-4.87-.28-.03,0-.05-.01-.07-.01-1.58-.22-3.13-.61-4.58-1.39.19.27.4.5.63.74.08.07.16.14.24.22.16.15.33.3.51.44.1.07.2.15.31.22.17.12.36.24.54.35.11.07.22.14.33.2.23.12.46.23.7.34.16.07.32.14.49.21.22.08.44.17.67.24.17.06.35.11.53.16.16.04.32.09.48.13.2.05.4.09.6.13.14.03.28.05.43.08.22.03.44.07.66.1.08,0,.16,0,.24.02.87.1,1.74.13,2.62.09h.22c.27-.02.55-.04.82-.06.07-.01.13-.02.2-.02.93-.1,1.85-.27,2.72-.5.18.65.35,1.41.53,2.32.02.1.04.2.06.3-5.92,1.34-13.2.26-16.88-3.2,2.63,5.26,10.96,6.9,17.16,4.92.12.84.21,1.66.27,2.46-1.82.32-3.7.35-5.56.42-3.24-.09-6.58-.1-9.53-1.69,2.99,4.04,10.3,4.49,15.19,2.71.03.75.04,1.46.03,2.09-1.01.17-2.03.29-3.07.44-2.55.45-4.68.15-7.25.2,2.14,1.46,4.91,2.2,7.47,1.79.88-.11,1.81-.3,2.72-.59-.1.67-.26,1.1-.46,1.18-.14.06-.29.16-.45.27-1.92.6-3.51,1.18-4.19,1.44-1.7-.64-8.89-3.27-13.47-3.4-3.54-.09-7.13,0-10.74-.5l-7.1-1.88c1.05-.86,2.58-1.96,4.3-2.75,3.48-1.6,6.58-3.02,6.59-3.02.33-.15.57-.47.64-.83,0-.02.37-2.14.73-3.59.33-1.31,1.36-2.96,1.37-2.98.1-.16.16-.34.17-.53ZM174.97,105.19c-.25,1.2-3.75,1.8-5.37,1.8s-5.12-.6-5.37-1.8c.6-.77,2.72-.88,5.37-2.33,2.65,1.45,4.77,1.56,5.37,2.33ZM151.11,99.99h0c-.66.22-1.32.45-2.02.72.69-.28,1.36-.51,2.02-.72ZM145.6,106.96c-.64.45-1.12.81-1.4,1.02.28-.22.76-.58,1.4-1.02ZM143.91,108.2s.02-.02.05-.03c-.04.03-.06.05-.06.05,0,0,0-.01,0-.02ZM150.43,106.61c-.03.42-.05.74-.07.95-.2.34-.57,1-.91,1.76-1.73,2.01-2.34,3.56-2.41,3.74.13-.14.77-.9,1.79-1.96-.24,1.03-.49,2.29-.62,3.01-1.04.47-3.44,1.56-6.06,2.78-3.17,1.44-5.63,3.74-6.29,4.39-2.06-.2-4.19-.01-6.27.82,5.48-6.8,12.63-12.17,20.84-15.49ZM124.41,129.44c1.71-4.38,6.85-6.49,12.01-5.66,5.06.82,12.33,3.01,12.33,3.01,0,0,19.18-3.44,20.45,8.58,1.27,12.02-.85,13.72-8.62,16.68-7.77,2.98-15.39-2.82-19.5-6.92-3.98-3.99-.21-12.67-.01-13.12-.24.32-4.02,5.55-6.48,7.61-2.54,2.12-11.31,7.07-11.31,7.07,0,0-.7-1.56-1.13-5.66-.42-4.1.57-7.21,2.26-11.59ZM163.76,164.46c4.47-1.55,4.98-.16,4.38,3.58-.61,3.77-1.97,3.95-4.24,4.15-2.27.2-5.46-1.65-5.6-5.19-.17-4.27,3.98-2.02,5.46-2.54ZM157.55,156.17c1.83-1.79,6.73-2.64,8.42-3.02,1.7-.38,2.54-.1,2.45,3.87-.09,3.96-2.02,4.71-4.42,5.47-2.4.75-4.05-.57-5.6-1.56-1.56-1-1.57-4.06-.85-4.76ZM164.42,174.31c4.03-.27,4.75-.71,3.86,5.18-.57,3.78-7.12,4.1-8.52-3.1-.81-4.21,2.67-1.95,4.66-2.08ZM112.12,146.83c.14-.44.32-.87.54-1.29-.21.42-.39.85-.53,1.29-1.56,4.8-.99,9.33-.99,9.33h-.01s0,0,0,0c0,0-.56-4.52.99-9.33ZM131.58,204.59c-.76,1.33-1.51,1.52-1.51,1.52,0,0,.09-1.8-1.13-2.74-1.22-.94-1.5-1.22-1.03-2.16.47-.95-.1-1.7-.1-1.7,0,0-.19,1.04-1.03,1.51-.86.47-1.61,2.35-1.33,3.77.16.81.86,1.13,1.42,1.25.42.09.84-.16,1-.56l.22-.59s1.89,2.16,1.32,3.76c-.56,1.6-2.73,1.88-4.06,1.6-1.05-.23-2.76-.64-3.74-1.72-.03.24,2.05,1.91,2.05,1.91h-2.92c-2.92-.24-4.81-9.35-5.04-10.48.16,1.19,1.5,10.71,3.44,11.33-.54.65-3.3-.78-3.3-.78-.54-.13-.94-.56-1.03-1.1-.46-2.75-1.93-11.35-3.48-17.06-2.78-10.24-6.01-17.91-5.84-20.36.28-4.1,2.11-5.94,2.11-5.94,0,0,2.4,1.84,2.26,6.93-.14,5.09,2.41,9.04,2.41,9.04,0,0-.42-9.18-1.27-12.57-.86-3.4-2.55-5.09.28-8.92,2.83-3.81,1.98-6.77,3.39-11.86,1.41-5.1,4.94-7.07,4.94-7.07,0,0,1.84,8.48,1.84,9.04s1.55-2.26,4.52-3.81c2.97-1.56,10.03-5.09,10.17-4.25.14.85,2.68,9.76-1.41,15.41-4.09,5.66-10.03,7.5-12.15,6.22-2.12-1.27-3.67-4.81-3.25-7.49.39-2.51.92-3.67.98-3.81-.24.12-4.46,2.46-2.67,9.47,1.83,7.21,4.66,10.74,2.82,16.68-1.83,5.94-3.11,13.85-.28,15.27,2.82,1.41,8.2,1.69,9.04,3.25,0,0,.76,1.46.76,3.53s2.35,2.17,1.6,3.48ZM125.28,180.21c.32-.42.65-.85.98-1.29,2.54-3.39.7-11.6.7-11.6,0,0,1.84.42,4.8-3.25,2.97-3.68,4.38-4.81,4.38-4.81,0,0,5.2,6.55,8.48,10.19,3.35,3.7,4.1,15.55,4.1,15.55.45,3.07,1.85,10.38,5.23,18.24-12.16-3.9-22.33-12.2-28.67-23.03ZM281.58,214.45l-1.19.83c-1.31.91-3.17,1.37-5.52,1.37-4.7,0-11.13-1.87-18.61-5.42-4.96-2.34-8.59-3.39-11.78-3.39-5.24,0-9.2,2.77-15.1,7.35-1.33,1.03-2.56,2.08-3.75,3.09-6.35,5.4-11.84,10.07-29.61,10.07-2.73,0-5.76.17-8.91-.34-33.63-5.39-36.71-44.69-37.15-48.26-.63-5.23-1.4-9.32-6.84-14.55-5.44-5.23-5.45-9.76-5.45-9.76,1.76,3.32,3.18,5.22,3.18,5.22,0,0-1.49-2.68-.36-2.4,1.14.29,7,6.72,8.91,8.2,1.9,1.48,3.81.5-2.54-4.94-6.37-5.44-6.08-9.27-6.08-9.27,0,0,2.69,3.47,4.66,5.66,1.98,2.19,6.43,2.19,6.43,2.19,0,0-.35-.35-2.33-1.41-1.98-1.06-3.46-3.32-4.31-4.8-.84-1.5,2.33.35,5.93,1.27,3.6.92,2.54-.28,4.45,7.77,1.92,8.06-4.45.64-1.13,4.87,3.33,4.25,2.55,7.5,2.55,7.5,0,0-3.11-5.79.57,1.98,3.67,7.78,5.78,7.64,8.89,8.06,1.9.26,2.32,1.05,2.36,1.62l2.32,13.04c2.22,12.42,12.71,21.79,25.31,22.26,8.55.32,18.4-1.52,27.41-8.6,0-.01.01-.01.01-.01.67-.03,1.23-.06,1.63-.09.58-.05,1.21-.81,1.81-1.89,0-.01.01-.01.01-.01.96-.65,1.82-1.31,2.57-1.98,6.64-5.94,19.78-11.02,24.02-11.72.11-.02.21-.04.3-.05,2.13-.1,4.02-1,5.64-2.32-.29.4-.48.86-.43,1.44.05.61.38,1.16.9,1.51.47.31.97.4,1.61.53,1.76.33,5.4,1.02,9.42,6.9,3.45,5.05,6.92,7.31,11.23,7.31.22,0,.44,0,.66-.01-.57.4-1.16.81-1.69,1.18Z"/>
    <path class="cls-3" d="M261.82,180.72c.92-.53,1.87-.99,2.83-1.47-8.13,2.41-15.87,7.9-19.5,15.74,4.17-6.13,10.18-10.76,16.66-14.27Z"/>
    <path class="cls-3" d="M247.06,195.06c5.12-4.37,10.54-9.14,16.95-11.45-6.95,1.03-12.77,6.06-16.95,11.45Z"/>
    <path class="cls-3" d="M251.23,194.71c3.61-2.3,7.01-4.69,11.02-6.29-4.35.22-8.37,2.96-11.02,6.29Z"/>
    <path class="cls-3" d="M250.43,203.5c5.75,6.44,14.75,9.44,23.23,9.38-1.05-.18-2.1-.34-3.14-.58-7.22-1.47-14.32-4.15-20.09-8.8Z"/>
    <path class="cls-3" d="M271.78,208.89c-6.81-.35-13.37-3.32-19.55-6.02,5.57,3.94,12.6,7.06,19.55,6.02Z"/>
    <path class="cls-3" d="M268.7,204.81c-4.3-.37-8.25-1.66-12.37-2.81,3.51,2.42,8.15,3.86,12.37,2.81Z"/>
    <path class="cls-3" d="M151.85,145.94c-.92-.62-2.35-.81-3.46-.86-.93-.04-1.53.94-1.07,1.75.45.79,1.24,1.56,2.65,1.56,2.92,0,3.58-1.32,1.88-2.45Z"/>
  </g>
  <g>
    <path class="cls-1" d="M204.13,159.33h-.01l-.07-.07s-.44.75-1.17,1.86c.78-.26,1.56-.51,2.34-.74-.57-.59-.94-.93-1.09-1.05Z"/>
    <path class="cls-1" d="M138.25,161.88c-1.37-.35-2.73-.55-4.08-.64-.64.7-1.44,1.63-2.4,2.82-1.22,1.51-2.24,2.33-3.03,2.77,3.52-.44,7.34-.34,11.2.78,1.36.39,2.7.75,4.02,1.08-1.85-2.1-4.09-4.82-5.7-6.81Z"/>
  </g>
  <g>
    <path class="cls-1" d="M188.83,107.56c.2.34.58,1,.92,1.75,1.72,2.01,2.34,3.56,2.41,3.74-.11-.12-.86-1-2.03-2.2l.37.78c.2.91.39,1.87.5,2.48,1.03.47,3.43,1.56,6.05,2.77,3.37,1.54,5.95,4.06,6.39,4.51,1.95-.29,3.98-.27,5.99.3-5.46-6.66-12.56-11.92-20.68-15.17.04.45.06.81.08,1.03Z"/>
    <path class="cls-1" d="M135.86,121.28c.66-.66,3.12-2.96,6.28-4.4,2.63-1.21,5.03-2.3,6.07-2.77.13-.73.38-1.99.62-3.02-1.02,1.06-1.66,1.82-1.79,1.96.07-.18.68-1.73,2.41-3.73.34-.76.71-1.42.91-1.76.02-.22.04-.54.07-.96-8.22,3.32-15.38,8.71-20.85,15.51,2.08-.84,4.22-1.03,6.28-.83Z"/>
  </g>
  <path class="cls-1" d="M161.01,88.17c-1.43.27-2.53.87-3.36,1.54.59,1.73,2.21,2.98,4.14,2.98,2.43,0,4.39-1.97,4.39-4.39,0-.72-.19-1.4-.5-2-1.35.79-2.98,1.56-4.68,1.87Z"/>
  <path class="cls-1" d="M176.4,88.17c-1.43.27-2.53.87-3.36,1.54.59,1.73,2.21,2.98,4.14,2.98,2.43,0,4.39-1.97,4.39-4.39,0-.72-.19-1.4-.5-2-1.35.79-2.98,1.56-4.68,1.87Z"/>
  <g>
    <path class="cls-1" d="M195.58,169.44c-.18.12-.35.26-.51.41-.03.04-.07.07-.1.1-.16.16-.31.33-.46.53-.01,0-.01.01-.01.02-.15.19-.29.4-.42.63-.02.03-.04.06-.05.09-.14.23-.27.48-.39.75-.13.28-.25.58-.36.88h-.01c-.15.39-.27.81-.39,1.22,6.47-2.83,13.3-5.49,20.3-6.46.04-.18.06-.3.06-.3,0,0-1.84.42-4.8-3.26-.21-.26-.39-.48-.59-.71-3.01.81-6,1.88-8.98,3.09-.4.44-.8.87-1.21,1.27-.68.67-1.39,1.27-2.08,1.73Z"/>
    <path class="cls-1" d="M146.51,172.95c-2.65-.56-5.2-1.2-7.59-1.89-3.94-1.14-7.91-1.04-11.46-.38.16,1.63.22,3.61-.1,5.35,3.88-.65,8.2-.69,12.56.58,2.75.8,5.42,1.46,8,2-.33-1.89-.8-3.91-1.42-5.66Z"/>
  </g>
  <g>
    <path class="cls-1" d="M191.98,178.42c-.07.49-.13.98-.18,1.44v.08c-.04.3-.06.58-.09.86-.01.11-.02.21-.03.31-.01.12-.01.23-.02.35-.06.73-.1,1.38-.12,1.93,0,.09,0,.2,0,.29,6.79-3.02,14.02-5.96,21.43-7.03-.41-1.67-.41-3.64-.28-5.35-6.97,1.13-13.89,4.06-20.7,7.11Z"/>
    <path class="cls-1" d="M148.72,184.99s-.07-1.06-.25-2.63c-3.35-.65-6.58-1.42-9.55-2.29-4.77-1.38-9.56-.94-13.62.09,0,.01-.02.02-.03.03.95,1.62,1.98,3.2,3.09,4.7,3.61-.49,7.57-.43,11.56.73,3.21.93,6.3,1.66,9.29,2.25-.23-1.17-.39-2.15-.5-2.88Z"/>
  </g>
  <g>
    <path class="cls-1" d="M150.07,191.67c-3.93-.7-7.7-1.59-11.15-2.59-2.64-.76-5.29-.97-7.82-.83,1.81,2.06,3.78,3.97,5.89,5.72.97.16,1.95.37,2.94.66,4.12,1.2,8.05,2.08,11.79,2.72-.67-2.04-1.22-3.96-1.65-5.69Z"/>
    <path class="cls-1" d="M214.14,180.1c-7.66.96-15.28,4.24-22.75,7.59,0,.14,0,.28,0,.42h0c0,.42,0,.82.03,1.22v.31c.02.35.04.7.06,1.04.01.14.02.28.03.41.03.32.06.63.09.94.02.15.03.31.05.46,0,.05.01.09.02.14,5.84-2.59,12-5.11,18.32-6.43,1.53-1.93,2.92-3.96,4.16-6.1Z"/>
  </g>
  <g>
    <path class="cls-1" d="M192.36,196.27s.01.04.02.06c.06.23.13.46.19.69.05.15.1.31.15.47.07.21.14.43.22.64.05.16.11.31.17.47.08.2.15.4.23.59.07.16.14.31.2.46.02.05.05.1.07.15,4.44-2.34,8.49-5.3,12.05-8.78-4.47,1.39-8.9,3.29-13.29,5.25Z"/>
    <path class="cls-1" d="M153.1,201.18c-2.46-.37-4.89-.81-7.23-1.32,2.57,1.35,5.27,2.47,8.07,3.37-.3-.69-.58-1.38-.84-2.05Z"/>
  </g>
  <g>
    <g>
      <polygon class="cls-3" points="274.68 229.73 271.81 229.08 262.24 226.92 261.36 230.84 261.36 240.48 262.87 241.1 261.88 245.5 261.76 245.47 254.64 225.2 247.84 223.67 244.98 223.03 244.1 226.95 244.1 236.59 244.85 236.93 242.6 246.9 239.61 246.86 238.72 250.77 238.72 260.4 251.17 263.21 252.05 259.31 252.05 249.67 250.52 249.04 251.43 245.01 251.54 245.04 258.96 264.97 265.55 266.46 270.79 243.25 273.8 243.29 274.68 239.36 274.68 229.73"/>
      <path class="cls-3" d="M89.15,244.7c-.52-2.14-1.61-3.72-3.25-4.73h.02v-6.24l-1.62-6.66c-1.57-.69-3.29-1.07-5.14-1.15-1.86-.08-3.9.18-6.14.78-1.96.52-3.63,1.29-5,2.32-1.37,1.03-2.35,2.22-2.95,3.58-.37.85-.53,1.73-.53,2.65-.02.19,0,8.88,0,9.07-.06.73,0,1.48.19,2.25.38,1.57,1.07,2.8,2.05,3.69h-.01v6.81l1.75,7.17c2.02.77,3.96,1.15,5.81,1.16,1.85,0,3.9-.27,6.15-.81,2.1-.51,3.87-1.26,5.3-2.25,1.43-.99,2.46-2.16,3.06-3.52.37-.84.53-1.73.53-2.67.01-.19,0-.38,0-.57.01-.19,0-.38,0-.57.01-.19,0-.38,0-.57.01-.19,0-.38,0-.57.01-.19,0-.38,0-.57.01-.19,0-.38,0-.57.01-.19,0-.38,0-.57.01-.19,0-.38,0-.57.01-.19,0-.38,0-.57.01-.19,0-.38,0-.57.01-.19,0-.38,0-.57.01-.19,0-.38,0-.57.01-.19,0-.38,0-.57.01-.19,0-.38,0-.57.01-.19,0-.38,0-.57.01-.19,0-.38,0-.57.06-.76,0-1.56-.21-2.39Z"/>
      <polygon class="cls-3" points="91.43 257.59 91.98 261.56 114.79 258.41 114.79 248.77 113.65 240.49 109.01 241.13 109 238.78 111.72 238.41 111.72 228.77 110.59 220.64 88.09 223.75 88.09 233.38 88.64 237.37 91.65 237.59 93 247.38 91.43 247.95 91.43 257.59"/>
      <polygon class="cls-3" points="144.6 246.55 144.32 242.56 142.31 242.4 132.13 218.93 124.72 219.45 117.98 244.13 116.01 244.57 116.01 254.2 116.29 258.2 126.91 257.44 126.91 249.98 133.76 249.5 133.72 252.95 134 256.94 144.6 256.19 144.6 246.55"/>
      <polygon class="cls-3" points="145.66 252.23 145.65 252.23 145.73 256.24 167.68 255.8 167.68 246.16 167.49 236.94 162.26 237.05 162.18 241.01 155.43 241.15 155.25 232.22 158.63 231.56 158.63 221.92 158.55 217.9 154.96 217.97 148.1 218.11 145.16 218.17 145.17 227.81 145.24 231.83 148.2 232.39 148.39 241.96 145.65 242.6 145.66 252.23"/>
      <path class="cls-3" d="M209.22,243.42l-2.56-.65.36-9.6,2.97-.51.15-4.02h-.02s.02-9.64.02-9.64l-13.25-.5-7.38,18.46h-.12s-6.16-18.98-6.16-18.98l-10.48-.4-2.93-.11-.15,4.02v9.64l2.54.64-.36,9.6-2.95.51-.15,4h.02s-.02,9.64-.02,9.64l12.74.48.15-4h-.02s.02-8.5.02-8.5h-.02s.01-.32.01-.32l4.39,13,5.39.2,5.04-12.18-.1,2.73v9.64l12.73.48.15-4h-.02s.02-9.64.02-9.64ZM178.54,236.99v-2.56s.13-.01.13-.01l2.66,7.9-2.79-.64v-4.68ZM199.86,235.96l-.14,2.76-.14,3.71-2.58.42,2.85-6.9Z"/>
      <path class="cls-3" d="M238.43,246.89l-1.95-.52-5.69-24.95-7.37-.85-11.17,23.02-2.01.06-.46,3.98v9.64l10.58,1.21.46-3.98-.06-3.42v-.04s6.68.77,6.68.77v7.49s10.54,1.21,10.54,1.21l.46-3.98v-9.64ZM226.38,237.18v.04s-.13-.02-.13-.02v-.03s.13.01.13.01Z"/>
    </g>
    <g>
      <path class="cls-1" d="M80.47,254.96c-2.25.55-4.3.82-6.15.81-1.85,0-3.79-.39-5.81-1.16l-1.75-7.17,5.14-1.25,1.46,3.54c.52.36,1.32.57,2.42.63,1.1.06,2.26-.06,3.47-.35.85-.21,1.53-.48,2.05-.83.52-.35.87-.76,1.07-1.23.19-.48.22-1,.08-1.57-.13-.54-.39-1-.76-1.36-.38-.36-.92-.66-1.64-.9s-1.64-.43-2.79-.58c-2.55-.18-4.68-.48-6.39-.9s-3.06-1.07-4.07-1.96c-1-.9-1.7-2.14-2.08-3.73-.37-1.53-.26-2.97.33-4.33.59-1.36,1.58-2.55,2.95-3.58,1.37-1.03,3.04-1.8,5-2.32,2.24-.6,4.29-.86,6.14-.78,1.85.08,3.57.46,5.14,1.15l1.62,6.66-4.93,1.2-1.68-3.51c-.48-.11-1.14-.16-1.98-.14-.84.02-1.71.13-2.61.35-.77.19-1.43.46-1.99.8s-.95.77-1.2,1.26c-.25.49-.3,1.04-.15,1.64.12.49.37.9.76,1.21.38.32.99.58,1.82.78.83.21,1.96.4,3.4.59,3.36.16,6.03.74,7.99,1.73,1.96.99,3.23,2.67,3.81,5.05.4,1.63.29,3.13-.32,4.49-.61,1.36-1.63,2.53-3.06,3.52-1.44.99-3.2,1.73-5.3,2.25Z"/>
      <path class="cls-1" d="M91.98,251.92l-.55-3.97,2.84-1.02-2.62-18.98-3.01-.22-.55-3.99,22.5-3.1,1.12,8.13-5.13.71-.55-2.88-7.51,1.04.8,5.79,9-1.24.72,5.21-9,1.24.93,6.71,7.88-1.09-.26-3.06,5.07-.7,1.14,8.28-22.81,3.15Z"/>
      <path class="cls-1" d="M116.29,248.56l-.28-3.99,1.97-.43,6.75-24.68,7.4-.53,10.18,23.48,2.01.15.28,3.99-10.6.75-.28-3.99,1.83-.48-1.08-3.02-9.12.65-.6,3.14,1.88.22.28,3.99-10.62.75ZM126.45,235.56l6.21-.44-3.38-8.4-.38-.97h-.12s-.25,1.12-.25,1.12l-2.08,8.68Z"/>
      <path class="cls-1" d="M145.73,246.6l-.08-4,2.94-.68-.39-19.16-2.96-.57-.08-4.02,2.95-.06,6.85-.14,3.59-.07.08,4.02-3.58.7.37,18.53,6.76-.14.08-3.97,5.23-.11.19,9.22-21.95.44Z"/>
      <path class="cls-1" d="M168.74,245.9l.15-4,2.95-.51.72-19.15-2.9-.74.15-4.02,2.93.11,10.48.4,6.16,18.98h.12s7.38-18.46,7.38-18.46l13.25.5-.15,4.02-2.97.51-.72,19.15,2.92.74-.15,4-12.73-.48.15-4,3.09-.51.14-3.71.66-13.36-.12-.02-8.86,21.42-5.39-.2-7.35-21.78h-.14s0,12.21,0,12.21l-.17,4.64,3.27.75-.15,4-12.74-.48Z"/>
      <path class="cls-1" d="M209.78,247.64l.46-3.98,2.01-.06,11.17-23.02,7.37.85,5.69,24.95,1.95.52-.46,3.98-10.56-1.21.46-3.98,1.88-.14-.5-3.16-9.08-1.04-1.17,2.97,1.8.56-.46,3.98-10.58-1.21ZM222.16,236.73l6.19.71-1.77-8.87-.2-1.03h-.12s-.46,1.04-.46,1.04l-3.65,8.15Z"/>
      <path class="cls-1" d="M238.72,250.77l.88-3.91,3,.04,4.22-18.69-2.72-1.25.88-3.92,2.86.64,6.8,1.53,7.12,20.27.11.03,2.98-13.22-3.5-1.43.88-3.92,9.56,2.16,2.88.65-.88,3.92-3.01-.04-5.23,23.21-6.59-1.49-7.42-19.93-.11-.03-2.9,12.86,3.52,1.44-.88,3.91-12.44-2.81Z"/>
    </g>
  </g>
  <g>
    <path class="cls-3" d="M196.66,141.2c.07-.51.1-1.02.1-1.55s-.03-1.05-.1-1.56l-2.47-.16c-.24-1.21-.73-2.34-1.41-3.32l1.66-1.88c-.31-.41-.65-.8-1.02-1.17s-.76-.72-1.18-1.03l-1.9,1.67c-.98-.66-2.1-1.12-3.3-1.35l-.16-2.54c-.51-.07-1.04-.1-1.56-.1s-1.04.03-1.55.1l-.16,2.54c-1.2.23-2.32.7-3.3,1.35l-1.9-1.67c-.41.31-.81.66-1.18,1.03s-.71.76-1.02,1.17l1.66,1.88c-.68.98-1.17,2.11-1.41,3.32l-2.47.16c-.07.51-.1,1.04-.1,1.56s.03,1.04.1,1.55l2.44.16c.23,1.24.7,2.39,1.37,3.4l-1.59,1.81c.31.41.66.81,1.03,1.18s.76.71,1.17,1.02l1.79-1.58c1.01.7,2.17,1.19,3.42,1.43l.15,2.37c.51.07,1.02.1,1.55.1s1.05-.03,1.56-.1l.15-2.37c1.25-.24,2.41-.73,3.42-1.43l1.79,1.58c.41-.31.8-.65,1.17-1.02s.72-.76,1.03-1.18l-1.59-1.81c.67-1.01,1.15-2.16,1.37-3.4l2.44-.16Z"/>
    <circle class="cls-1" cx="185.33" cy="139.65" r="7.77"/>
    <g>
      <path class="cls-3" d="M190.05,140.1c-.19-.8-.6-1.38-1.21-1.76h0v-2.32l-.6-2.48c-2.44-1.06-7.14-.15-7.35,3.04.13,1.48-.49,4.51.83,5.58h0v2.53l.65,2.67c2.58.97,7.47.31,7.75-3.01-.05-1.43.12-2.84-.08-4.26Z"/>
      <path class="cls-2" d="M186.82,143.91c-1.65.38-2.87.47-4.45-.13l-.65-2.67,1.91-.47.54,1.32c.93.49,3.65.31,3.38-1.25-.24-.85-1.09-.91-1.93-1.05-1.53-.16-2.84-.2-3.89-1.06-3.24-3.78,3.46-6.69,6.5-5.06l.6,2.48-1.83.45-.62-1.31c-2.79-.56-4.66,2.19-.73,2.42,5.12-.22,6.27,5.2,1.16,6.33Z"/>
    </g>
  </g>
</svg>