<?xml version="1.0" encoding="UTF-8"?>
<svg id="Full_Logo" xmlns="http://www.w3.org/2000/svg" viewBox="75 82 214.23 49.46">
  <defs>
    <style>
      .cls-1 {
        fill: #4388c8;
      }

      .cls-2 {
        fill: #1e3b70;
      }
    </style>
  </defs>
  <g>
    <polygon class="cls-2" points="287.2 94.49 284.33 93.84 274.76 91.68 273.88 95.6 273.88 105.24 275.39 105.86 274.4 110.26 274.28 110.23 267.16 89.97 260.36 88.43 257.5 87.79 256.62 91.71 256.62 101.35 257.37 101.7 255.12 111.66 252.12 111.62 251.24 115.53 251.24 125.17 263.68 127.97 264.57 124.07 264.57 114.43 263.04 113.8 263.95 109.77 264.06 109.8 271.48 129.73 278.07 131.22 283.3 108.01 286.32 108.05 287.2 104.12 287.2 94.49"/>
    <path class="cls-2" d="M101.67,109.46c-.52-2.14-1.61-3.72-3.25-4.73h.02v-6.24l-1.62-6.66c-1.57-.69-3.29-1.07-5.14-1.15-1.86-.08-3.9.18-6.14.78-1.96.52-3.63,1.29-5,2.32-1.37,1.03-2.35,2.22-2.95,3.58-.37.85-.53,1.73-.53,2.65-.02.19,0,8.88,0,9.07-.06.73,0,1.48.19,2.25.38,1.57,1.07,2.8,2.05,3.69h-.01v6.81l1.75,7.17c2.02.77,3.96,1.15,5.81,1.16,1.85,0,3.9-.27,6.15-.81,2.1-.51,3.87-1.26,5.3-2.25,1.43-.99,2.46-2.16,3.06-3.52.37-.84.53-1.73.53-2.67.01-.19,0-.38,0-.57.01-.19,0-.38,0-.57.01-.19,0-.38,0-.57.01-.19,0-.38,0-.57.01-.19,0-.38,0-.57.01-.19,0-.38,0-.57.01-.19,0-.38,0-.57.01-.19,0-.38,0-.57.01-.19,0-.38,0-.57.01-.19,0-.38,0-.57.01-.19,0-.38,0-.57.01-.19,0-.38,0-.57.01-.19,0-.38,0-.57.01-.19,0-.38,0-.57.01-.19,0-.38,0-.57.01-.19,0-.38,0-.57.06-.76,0-1.56-.21-2.39Z"/>
    <polygon class="cls-2" points="103.95 122.35 104.5 126.32 127.31 123.17 127.31 113.53 126.17 105.25 121.53 105.89 121.52 103.54 124.23 103.17 124.23 93.53 123.11 85.4 100.61 88.51 100.61 98.14 101.16 102.13 104.17 102.35 105.52 112.15 103.95 112.71 103.95 122.35"/>
    <polygon class="cls-2" points="157.12 111.31 156.84 107.32 154.83 107.17 144.64 83.69 137.24 84.21 130.5 108.89 128.53 109.33 128.53 118.96 128.81 122.96 139.43 122.2 139.42 114.74 146.28 114.26 146.24 117.71 146.52 121.7 157.12 120.95 157.12 111.31"/>
    <polygon class="cls-2" points="158.18 116.99 158.17 117 158.25 121 180.2 120.56 180.2 110.92 180.01 101.7 174.78 101.81 174.7 105.77 167.94 105.91 167.76 96.98 171.15 96.32 171.15 86.68 171.07 82.66 167.48 82.73 160.62 82.87 157.67 82.93 157.69 92.57 157.76 96.59 160.72 97.15 160.91 106.72 158.17 107.36 158.18 116.99"/>
    <path class="cls-2" d="M221.74,108.18l-2.56-.65.36-9.6,2.97-.51.15-4.02h-.02s.02-9.64.02-9.64l-13.25-.5-7.38,18.46h-.12s-6.16-18.98-6.16-18.98l-10.48-.4-2.93-.11-.15,4.02v9.64l2.54.64-.36,9.6-2.95.51-.15,4h.02s-.02,9.64-.02,9.64l12.74.48.15-4h-.02s.02-8.5.02-8.5h-.02s.01-.32.01-.32l4.39,13,5.39.2,5.04-12.18-.1,2.73v9.64l12.73.48.15-4h-.02s.02-9.64.02-9.64ZM191.06,101.75v-2.56s.13-.01.13-.01l2.66,7.9-2.79-.64v-4.68ZM212.38,100.72l-.14,2.76-.14,3.71-2.58.42,2.85-6.9Z"/>
    <path class="cls-2" d="M250.95,111.65l-1.95-.52-5.69-24.95-7.37-.85-11.17,23.02-2.01.06-.46,3.98v9.64l10.58,1.21.46-3.98-.06-3.42v-.04s6.68.77,6.68.77v7.49s10.54,1.21,10.54,1.21l.46-3.98v-9.64ZM238.9,101.94v.04s-.13-.02-.13-.02v-.03s.13.01.13.01Z"/>
  </g>
  <g>
    <path class="cls-1" d="M92.99,119.72c-2.25.55-4.3.82-6.15.81-1.85,0-3.79-.39-5.81-1.16l-1.75-7.17,5.14-1.25,1.46,3.54c.52.36,1.32.57,2.42.63,1.1.06,2.26-.06,3.47-.35.85-.21,1.53-.48,2.05-.83.52-.35.87-.76,1.07-1.23.19-.48.22-1,.08-1.57-.13-.54-.39-1-.76-1.36-.38-.36-.92-.66-1.64-.9s-1.64-.43-2.79-.58c-2.55-.18-4.68-.48-6.39-.9s-3.06-1.07-4.07-1.96c-1-.9-1.7-2.14-2.08-3.73-.37-1.53-.26-2.97.33-4.33.59-1.36,1.58-2.55,2.95-3.58,1.37-1.03,3.04-1.8,5-2.32,2.24-.6,4.29-.86,6.14-.78,1.85.08,3.57.46,5.14,1.15l1.62,6.66-4.93,1.2-1.68-3.51c-.48-.11-1.14-.16-1.98-.14-.84.02-1.71.13-2.61.35-.77.19-1.43.46-1.99.8s-.95.77-1.2,1.26c-.25.49-.3,1.04-.15,1.64.12.49.37.9.76,1.21.38.32.99.58,1.82.78.83.21,1.96.4,3.4.59,3.36.16,6.03.74,7.99,1.73,1.96.99,3.23,2.67,3.81,5.05.4,1.63.29,3.13-.32,4.49-.61,1.36-1.63,2.53-3.06,3.52-1.44.99-3.2,1.73-5.3,2.25Z"/>
    <path class="cls-1" d="M104.5,116.68l-.55-3.97,2.84-1.02-2.62-18.98-3.01-.22-.55-3.99,22.5-3.1,1.12,8.13-5.13.71-.55-2.88-7.51,1.04.8,5.79,9-1.24.72,5.21-9,1.24.93,6.71,7.88-1.09-.26-3.06,5.07-.7,1.14,8.28-22.81,3.15Z"/>
    <path class="cls-1" d="M128.81,113.32l-.28-3.99,1.97-.43,6.75-24.68,7.4-.53,10.18,23.48,2.01.15.28,3.99-10.6.75-.28-3.99,1.83-.48-1.08-3.02-9.12.65-.6,3.14,1.88.22.28,3.99-10.62.75ZM138.97,100.32l6.21-.44-3.38-8.4-.38-.97h-.12s-.25,1.12-.25,1.12l-2.08,8.68Z"/>
    <path class="cls-1" d="M158.25,111.36l-.08-4,2.94-.68-.39-19.16-2.96-.57-.08-4.02,2.95-.06,6.85-.14,3.59-.07.08,4.02-3.58.7.37,18.53,6.76-.14.08-3.97,5.23-.11.19,9.22-21.95.44Z"/>
    <path class="cls-1" d="M181.26,110.66l.15-4,2.95-.51.72-19.15-2.9-.74.15-4.02,2.93.11,10.48.4,6.16,18.98h.12s7.38-18.46,7.38-18.46l13.25.5-.15,4.02-2.97.51-.72,19.15,2.92.74-.15,4-12.73-.48.15-4,3.09-.51.14-3.71.66-13.36-.12-.02-8.86,21.42-5.39-.2-7.35-21.78h-.14s0,12.21,0,12.21l-.17,4.64,3.27.75-.15,4-12.74-.48Z"/>
    <path class="cls-1" d="M222.3,112.4l.46-3.98,2.01-.06,11.17-23.02,7.37.85,5.69,24.95,1.95.52-.46,3.98-10.56-1.21.46-3.98,1.88-.14-.5-3.16-9.08-1.04-1.17,2.97,1.8.56-.46,3.98-10.58-1.21ZM234.68,101.49l6.19.71-1.77-8.87-.2-1.03h-.12s-.46,1.04-.46,1.04l-3.65,8.15Z"/>
    <path class="cls-1" d="M251.24,115.53l.88-3.91,3,.04,4.22-18.69-2.72-1.25.88-3.92,2.86.64,6.8,1.53,7.12,20.27.11.03,2.98-13.22-3.5-1.43.88-3.92,9.56,2.16,2.88.65-.88,3.92-3.01-.04-5.23,23.21-6.59-1.49-7.42-19.93-.11-.03-2.9,12.86,3.52,1.44-.88,3.91-12.44-2.81Z"/>
  </g>
</svg>